<svg version="1.1" id="Layer_1" xmlns="http://www.w3.org/2000/svg" xmlns:xlink="http://www.w3.org/1999/xlink" x="0px" y="0px"
	 width="100%" viewBox="0 0 320 320" enable-background="new 0 0 320 320" xml:space="preserve">
<path fill="#FFFFFF" opacity="1.000000" stroke="none" 
	d="
M154.000000,321.000000 
	C102.666679,321.000000 51.833351,321.000000 1.000021,321.000000 
	C1.000014,214.333359 1.000014,107.666725 1.000007,1.000063 
	C107.666618,1.000042 214.333237,1.000042 320.999878,1.000021 
	C320.999939,107.666595 320.999939,214.333191 320.999969,320.999878 
	C265.500000,321.000000 210.000000,321.000000 154.000000,321.000000 
M188.106110,201.408432 
	C188.106110,182.928970 188.106110,164.449524 188.106110,145.970062 
	C195.052139,159.185959 201.022064,172.507111 207.061676,185.796570 
	C209.179733,190.457092 210.331924,196.841507 213.997620,199.155060 
	C217.717941,201.503113 224.011017,199.588715 229.149536,199.943680 
	C232.379944,200.166855 233.789490,198.856171 235.014389,196.048172 
	C241.852661,180.372131 248.878540,164.777908 255.858917,149.164047 
	C256.317352,148.138580 256.930725,147.182343 257.814026,145.569382 
	C257.814026,166.942871 257.814026,187.378326 257.814026,207.701675 
	C252.940628,208.121017 248.305344,208.319183 243.735535,208.974213 
	C239.816986,209.535858 237.183411,211.986237 235.959854,215.818909 
	C233.406265,223.817657 237.810699,230.381134 246.894211,230.752686 
	C258.870880,231.242569 270.881958,230.919220 282.877960,230.872498 
	C284.181915,230.867401 285.508453,230.465927 286.782593,230.101715 
	C291.780640,228.672974 294.827148,224.568024 294.792542,219.409103 
	C294.757904,214.249008 291.600769,210.269928 286.457489,208.971893 
	C284.717957,208.532867 282.952118,208.198074 281.108795,207.796143 
	C281.108795,179.191299 281.108795,150.717865 281.108795,123.907562 
	C285.281281,120.427299 289.766754,118.302284 291.647522,114.784630 
	C295.706879,107.192215 290.403076,99.782722 280.902069,99.230545 
	C272.928070,98.767113 264.902466,99.233040 256.919556,98.861046 
	C253.427521,98.698311 252.115509,100.062889 250.810715,103.059929 
	C241.876022,123.582474 232.714020,144.006058 223.396164,164.977142 
	C222.459778,163.082199 221.691666,161.637299 221.018631,160.149353 
	C212.327408,140.934631 203.682617,121.698730 194.900818,102.525566 
	C194.258835,101.123947 192.674652,99.186096 191.486664,99.156113 
	C182.331253,98.925003 173.131592,98.634781 164.013107,99.294868 
	C155.877380,99.883812 151.043152,107.276909 154.453461,114.260147 
	C156.243912,117.926407 160.787766,120.248001 165.099579,124.074265 
	C165.099579,150.690994 165.099579,179.146378 165.099579,207.833725 
	C163.885696,208.052856 162.776474,208.226395 161.678879,208.455582 
	C154.795975,209.892700 151.538544,213.669342 151.685043,220.021652 
	C151.826706,226.164658 155.486725,230.406113 162.557281,230.674484 
	C175.033813,231.148010 187.545776,231.037888 200.032043,230.730469 
	C204.923706,230.610031 208.952576,228.273895 210.489700,222.976593 
	C212.439865,216.255890 209.281540,210.334396 202.393921,209.018433 
	C197.758667,208.132782 192.965302,208.074722 188.106110,207.634048 
	C188.106110,205.688629 188.106110,204.034775 188.106110,201.408432 
M89.624817,118.686272 
	C98.807426,118.517296 107.329063,120.619553 115.287125,125.394600 
	C121.489471,129.116180 122.251625,135.477570 124.238708,141.417999 
	C125.881233,146.328384 130.176498,148.512024 135.822937,147.970367 
	C140.433151,147.528107 144.581741,144.334961 144.803772,139.380188 
	C145.279449,128.764099 145.537048,118.064903 144.719635,107.489746 
	C144.165985,100.327240 135.858292,96.858871 129.327744,100.198616 
	C127.451744,101.158028 125.875961,102.704453 123.961830,104.131332 
	C122.884827,103.592415 121.714722,102.998703 120.537651,102.419113 
	C88.594414,86.690384 45.382133,98.379578 32.838646,138.704956 
	C28.829954,151.592285 29.562002,164.720795 29.956499,177.833252 
	C30.460941,194.600113 37.859550,208.346268 50.374550,219.064941 
	C71.816383,237.429169 112.813828,239.573685 136.137009,223.581863 
	C140.659653,220.480881 144.469559,215.959930 147.672012,211.431854 
	C150.335175,207.666306 149.539810,203.103043 146.602524,199.315842 
	C143.798355,195.700317 139.884583,193.952911 135.583633,195.196167 
	C132.723618,196.022903 129.862946,197.971375 127.780380,200.158401 
	C120.786133,207.503494 112.128693,210.621750 102.311523,211.044846 
	C97.829796,211.238007 93.317375,211.183441 88.839111,210.909851 
	C71.647667,209.859528 57.122684,198.902206 53.822853,182.623856 
	C52.004616,173.654282 52.501034,164.064148 52.993637,154.809128 
	C54.009121,135.730179 69.574425,120.368210 89.624817,118.686272 
z"/>
<path fill="#020202" opacity="1.000000" stroke="none" 
	d="
M188.106110,201.894684 
	C188.106110,204.034775 188.106110,205.688629 188.106110,207.634048 
	C192.965302,208.074722 197.758667,208.132782 202.393921,209.018433 
	C209.281540,210.334396 212.439865,216.255890 210.489700,222.976593 
	C208.952576,228.273895 204.923706,230.610031 200.032043,230.730469 
	C187.545776,231.037888 175.033813,231.148010 162.557281,230.674484 
	C155.486725,230.406113 151.826706,226.164658 151.685043,220.021652 
	C151.538544,213.669342 154.795975,209.892700 161.678879,208.455582 
	C162.776474,208.226395 163.885696,208.052856 165.099579,207.833725 
	C165.099579,179.146378 165.099579,150.690994 165.099579,124.074265 
	C160.787766,120.248001 156.243912,117.926407 154.453461,114.260147 
	C151.043152,107.276909 155.877380,99.883812 164.013107,99.294868 
	C173.131592,98.634781 182.331253,98.925003 191.486664,99.156113 
	C192.674652,99.186096 194.258835,101.123947 194.900818,102.525566 
	C203.682617,121.698730 212.327408,140.934631 221.018631,160.149353 
	C221.691666,161.637299 222.459778,163.082199 223.396164,164.977142 
	C232.714020,144.006058 241.876022,123.582474 250.810715,103.059929 
	C252.115509,100.062889 253.427521,98.698311 256.919556,98.861046 
	C264.902466,99.233040 272.928070,98.767113 280.902069,99.230545 
	C290.403076,99.782722 295.706879,107.192215 291.647522,114.784630 
	C289.766754,118.302284 285.281281,120.427299 281.108795,123.907562 
	C281.108795,150.717865 281.108795,179.191299 281.108795,207.796143 
	C282.952118,208.198074 284.717957,208.532867 286.457489,208.971893 
	C291.600769,210.269928 294.757904,214.249008 294.792542,219.409103 
	C294.827148,224.568024 291.780640,228.672974 286.782593,230.101715 
	C285.508453,230.465927 284.181915,230.867401 282.877960,230.872498 
	C270.881958,230.919220 258.870880,231.242569 246.894211,230.752686 
	C237.810699,230.381134 233.406265,223.817657 235.959854,215.818909 
	C237.183411,211.986237 239.816986,209.535858 243.735535,208.974213 
	C248.305344,208.319183 252.940628,208.121017 257.814026,207.701675 
	C257.814026,187.378326 257.814026,166.942871 257.814026,145.569382 
	C256.930725,147.182343 256.317352,148.138580 255.858917,149.164047 
	C248.878540,164.777908 241.852661,180.372131 235.014389,196.048172 
	C233.789490,198.856171 232.379944,200.166855 229.149536,199.943680 
	C224.011017,199.588715 217.717941,201.503113 213.997620,199.155060 
	C210.331924,196.841507 209.179733,190.457092 207.061676,185.796570 
	C201.022064,172.507111 195.052139,159.185959 188.106110,145.970062 
	C188.106110,164.449524 188.106110,182.928970 188.106110,201.894684 
z"/>
<path fill="#030303" opacity="1.000000" stroke="none" 
	d="
M89.156830,118.719215 
	C69.574425,120.368210 54.009121,135.730179 52.993637,154.809128 
	C52.501034,164.064148 52.004616,173.654282 53.822853,182.623856 
	C57.122684,198.902206 71.647667,209.859528 88.839111,210.909851 
	C93.317375,211.183441 97.829796,211.238007 102.311523,211.044846 
	C112.128693,210.621750 120.786133,207.503494 127.780380,200.158401 
	C129.862946,197.971375 132.723618,196.022903 135.583633,195.196167 
	C139.884583,193.952911 143.798355,195.700317 146.602524,199.315842 
	C149.539810,203.103043 150.335175,207.666306 147.672012,211.431854 
	C144.469559,215.959930 140.659653,220.480881 136.137009,223.581863 
	C112.813828,239.573685 71.816383,237.429169 50.374550,219.064941 
	C37.859550,208.346268 30.460941,194.600113 29.956499,177.833252 
	C29.562002,164.720795 28.829954,151.592285 32.838646,138.704956 
	C45.382133,98.379578 88.594414,86.690384 120.537651,102.419113 
	C121.714722,102.998703 122.884827,103.592415 123.961830,104.131332 
	C125.875961,102.704453 127.451744,101.158028 129.327744,100.198616 
	C135.858292,96.858871 144.165985,100.327240 144.719635,107.489746 
	C145.537048,118.064903 145.279449,128.764099 144.803772,139.380188 
	C144.581741,144.334961 140.433151,147.528107 135.822937,147.970367 
	C130.176498,148.512024 125.881233,146.328384 124.238708,141.417999 
	C122.251625,135.477570 121.489471,129.116180 115.287125,125.394600 
	C107.329063,120.619553 98.807426,118.517296 89.156830,118.719215 
z"/>
</svg>